<?xml version="1.0" encoding="UTF-8"?>
<svg id="cate_logo" xmlns="http://www.w3.org/2000/svg" width="124.2" height="43" version="1.1" viewBox="0 0 124.2 43">
  <!-- Generator: Adobe Illustrator 29.3.1, SVG Export Plug-In . SVG Version: 2.1.0 Build 151)  -->
  <defs>
    <style>
      .st0 {
        fill: #fff;
      }
    </style>
  </defs>
  <g id="Ebene_2">
    <g id="Ebene_1-2">
      <polygon class="st0" points="29.5 16.2 19.6 10.5 9.7 16.2 9.7 27.7 19.6 33.4 29.5 27.7 29.5 16.2"/>
      <polygon class="st0" points="32.9 31.5 21.2 38.3 21.2 42.4 36.5 33.5 32.9 31.5"/>
      <path class="st0" d="M18,38.3l-13.3-7.7v-15.4l-3.6-2.1v18.4c0,.6.3,1.2.9,1.6l16,9.2v-4.1Z"/>
      <path class="st0" d="M6.3,12.4l13.3-7.7,13.3,7.7,3.5-2.1L20.5,1.2c-.6-.3-1.2-.3-1.8,0L2.8,10.4l3.6,2.1Z"/>
      <path class="st0" d="M89.7,12.7h3.3v-5.2h4.6v5.2h4.3v3.6h-4.3v8.6c0,2.7.6,3.4,2.6,3.4.5,0,.9,0,1.3-.2v3.6c-.9.2-1.9.3-2.8.3-2.4,0-4-.6-5-1.8-.8-1-.9-1.8-.9-4.7v-9.1h-3.1v-3.6Z"/>
      <path class="st0" d="M120.3,14.7c-1.5-1.7-3.6-2.6-6.3-2.5-1.7,0-3.4.4-4.9,1.3-1.4.8-2.6,2.1-3.3,3.5-.8,1.6-1.2,3.4-1.2,5.2,0,3.1.9,5.5,2.7,7.3,1.8,1.8,4.3,2.7,7.4,2.6,1.4,0,2.8-.2,4.1-.7,1.2-.4,2.4-1,3.4-1.8l-1.4-3.4c-1.6,1.3-3.7,2-5.8,2-1.7,0-3-.4-3.9-1.3-.9-.8-1.4-2.1-1.6-3.8h13v-1.5c0-3-.8-5.3-2.3-7ZM114.2,15.6c1.2,0,2.3.4,3.1,1.2.7.8,1.1,2,1.2,3.5h-8.8c0-1.3.6-2.5,1.5-3.5.8-.8,2-1.3,3.1-1.2h0Z"/>
      <path class="st0" d="M56.1,32.3c-5.5,0-10-4.4-10.1-9.9,0,0,0-.1,0-.2h0c0-5.6,4.4-10.2,9.9-10.3,0,0,.1,0,.2,0,3.2,0,5.6,1,7.8,3.4h0c0,0-2.9,3.2-2.9,3.2h0c-1.2-1.3-2.6-2.5-4.9-2.5s-5.5,2.6-5.5,6h0c0,3.5,2.4,6.1,5.7,6.1s3.3-.7,4.9-2.3h0c0,0,2.8,2.7,2.8,2.7h0c-1.6,1.9-3.8,3.7-8,3.7Z"/>
      <path class="st0" d="M81.5,12.7h4.4v18.9h-4.4v-2c-1.8,1.7-3.7,2.5-5.8,2.5-2.5,0-4.8-1-6.5-2.8-1.7-1.9-2.5-4.3-2.5-7.2s.8-5.2,2.5-7.1c1.6-1.8,3.9-2.9,6.4-2.8,2.2,0,4.2.9,5.9,2.7v-2.2ZM71.1,22.1c0,1.6.4,3.2,1.5,4.4.9,1.1,2.3,1.8,3.8,1.7,1.5,0,2.9-.6,3.9-1.7,1-1.2,1.6-2.8,1.5-4.4,0-1.6-.5-3.2-1.5-4.4-1-1.1-2.4-1.7-3.9-1.7-1.4,0-2.8.6-3.8,1.7-1,1.2-1.5,2.7-1.5,4.3Z"/>
    </g>
  </g>
</svg>